<svg width="24" height="20" viewBox="0 0 24 20" fill="none" xmlns="http://www.w3.org/2000/svg">
<path d="M21.25 2H16V1.75C16 0.785 15.215 0 14.25 0H14H10H9.75C8.785 0 8 0.785 8 1.75V2H2.75C1.233 2 0 3.233 0 4.75V17.25C0 18.767 1.233 20 2.75 20H21.25C22.767 20 24 18.767 24 17.25V4.75C24 3.233 22.767 2 21.25 2ZM14.001 4H10V2H14L14.001 4ZM7.5 7C8.878 7 10 8.122 10 9.5C10 10.878 8.878 12 7.5 12C6.122 12 5 10.878 5 9.5C5 8.122 6.122 7 7.5 7ZM12 16.25C12 16.664 11.664 17 11.25 17H3.75C3.336 17 3 16.664 3 16.25V15.75C3 14.233 4.233 13 5.75 13H9.25C10.767 13 12 14.233 12 15.75V16.25ZM20.25 17H14.75C14.336 17 14 16.664 14 16.25C14 15.836 14.336 15.5 14.75 15.5H20.25C20.664 15.5 21 15.836 21 16.25C21 16.664 20.664 17 20.25 17ZM20.25 13H14.75C14.336 13 14 12.664 14 12.25C14 11.836 14.336 11.5 14.75 11.5H20.25C20.664 11.5 21 11.836 21 12.25C21 12.664 20.664 13 20.25 13ZM20.25 9H14.75C14.336 9 14 8.664 14 8.25C14 7.836 14.336 7.5 14.75 7.5H20.25C20.664 7.5 21 7.836 21 8.25C21 8.664 20.664 9 20.25 9Z" fill="white"/>
</svg>
