<svg width="32" height="20" viewBox="0 0 32 20" fill="none" xmlns="http://www.w3.org/2000/svg">
<path d="M26.9458 8.85804C27.8243 8.24071 28.406 7.2138 28.406 6.0563C28.406 4.16275 26.8746 2.63129 24.981 2.63129C23.0875 2.63129 21.556 4.16275 21.556 6.0563C21.556 7.2138 22.1318 8.24071 23.0162 8.85804C22.2624 9.11922 21.5738 9.52286 20.9921 10.0452C20.1907 9.36259 19.2469 8.84023 18.2141 8.53157C19.4666 7.77177 20.3095 6.38871 20.3095 4.8157C20.3095 2.4176 18.3684 0.476562 15.9703 0.476562C13.5722 0.476562 11.6312 2.42354 11.6312 4.8157C11.6312 6.38871 12.4681 7.77177 13.7266 8.53157C12.7056 8.84023 11.7736 9.35666 10.9782 10.0274C10.3965 9.51693 9.71983 9.11922 8.97784 8.86398C9.85635 8.24665 10.4381 7.21974 10.4381 6.06224C10.4381 4.16869 8.90661 2.63723 7.01306 2.63723C5.11951 2.63723 3.58805 4.16869 3.58805 6.06224C3.58805 7.21974 4.16383 8.24665 5.04828 8.86398C2.69173 9.6772 1 11.915 1 14.5446V14.9364C1 14.9483 1.01187 14.9601 1.02374 14.9601H8.28334C8.24179 15.2866 8.21805 15.625 8.21805 15.9633V16.3669C8.21805 18.1121 9.63079 19.5248 11.3759 19.5248H20.5766C22.3217 19.5248 23.7345 18.1121 23.7345 16.3669V15.9633C23.7345 15.625 23.7107 15.2866 23.6692 14.9601H30.9763C30.9881 14.9601 31 14.9483 31 14.9364V14.5446C30.9881 11.9091 29.3023 9.67126 26.9458 8.85804ZM22.5057 6.05036C22.5057 4.68511 23.6157 3.5751 24.981 3.5751C26.3463 3.5751 27.4563 4.68511 27.4563 6.05036C27.4563 7.39781 26.37 8.49595 25.0285 8.52563C25.0107 8.52563 24.9988 8.52563 24.981 8.52563C24.9632 8.52563 24.9513 8.52563 24.9335 8.52563C23.5861 8.50189 22.5057 7.40375 22.5057 6.05036ZM12.5691 4.8157C12.5691 2.94589 14.0886 1.42631 15.9584 1.42631C17.8283 1.42631 19.3478 2.94589 19.3478 4.8157C19.3478 6.62021 17.9292 8.09825 16.1543 8.19916C16.089 8.19916 16.0237 8.19916 15.9584 8.19916C15.8932 8.19916 15.8279 8.19916 15.7626 8.19916C13.9877 8.09825 12.5691 6.62021 12.5691 4.8157ZM4.51998 6.05036C4.51998 4.68511 5.63 3.5751 6.99525 3.5751C8.36051 3.5751 9.47052 4.68511 9.47052 6.05036C9.47052 7.39781 8.38425 8.49595 7.04274 8.52563C7.02493 8.52563 7.01306 8.52563 6.99525 8.52563C6.97744 8.52563 6.96557 8.52563 6.94776 8.52563C5.60625 8.50189 4.51998 7.40375 4.51998 6.05036ZM8.44954 14.0045H1.96161C2.22873 11.4758 4.36565 9.49318 6.95964 9.47538C6.97151 9.47538 6.98338 9.47538 6.99525 9.47538C7.00712 9.47538 7.01899 9.47538 7.03087 9.47538C8.26553 9.48131 9.39335 9.93837 10.2659 10.6804C9.41116 11.6064 8.77602 12.7461 8.44954 14.0045ZM22.7729 16.3669C22.7729 17.5838 21.7816 18.5751 20.5647 18.5751H11.3641C10.1472 18.5751 9.15592 17.5838 9.15592 16.3669V15.9633C9.15592 12.2771 12.1001 9.26168 15.7626 9.15484C15.8279 9.16077 15.8991 9.16077 15.9644 9.16077C16.0297 9.16077 16.1009 9.16077 16.1662 9.15484C19.8287 9.26168 22.7729 12.2771 22.7729 15.9633V16.3669ZM23.4792 14.0045C23.1528 12.752 22.5295 11.6301 21.6806 10.7041C22.5592 9.94431 23.6989 9.48725 24.9454 9.47538C24.9573 9.47538 24.9691 9.47538 24.981 9.47538C24.9929 9.47538 25.0047 9.47538 25.0166 9.47538C27.6106 9.49318 29.7475 11.4758 30.0146 14.0045H23.4792Z" fill="#F1416C" stroke="#F1416C" stroke-width="0.2"/>
</svg>
