<svg width="32" height="32" viewBox="0 0 32 32" fill="none" xmlns="http://www.w3.org/2000/svg">
<g clip-path="url(#clip0_240_20895)">
<path d="M5.50823 17.3109C5.79796 17.3109 6.03282 17.076 6.03282 16.7863C6.03282 16.4966 5.79796 16.2617 5.50823 16.2617C5.21851 16.2617 4.98364 16.4966 4.98364 16.7863C4.98364 17.076 5.21851 17.3109 5.50823 17.3109Z" fill="#F1416C" stroke="#F1416C" stroke-width="0.2"/>
<path d="M7.60662 15.7386C7.89634 15.7386 8.13121 15.5038 8.13121 15.214C8.13121 14.9243 7.89634 14.6895 7.60662 14.6895C7.3169 14.6895 7.08203 14.9243 7.08203 15.214C7.08203 15.5038 7.3169 15.7386 7.60662 15.7386Z" fill="#F1416C" stroke="#F1416C" stroke-width="0.2"/>
<path d="M12.8525 15.2132C13.1422 15.2132 13.3771 14.9784 13.3771 14.6887C13.3771 14.3989 13.1422 14.1641 12.8525 14.1641C12.5627 14.1641 12.3279 14.3989 12.3279 14.6887C12.3279 14.9784 12.5627 15.2132 12.8525 15.2132Z" fill="#F1416C" stroke="#F1416C" stroke-width="0.2"/>
<path d="M3.9345 19.9339C4.22423 19.9339 4.45909 19.6991 4.45909 19.4094C4.45909 19.1196 4.22423 18.8848 3.9345 18.8848C3.64478 18.8848 3.40991 19.1196 3.40991 19.4094C3.40991 19.6991 3.64478 19.9339 3.9345 19.9339Z" fill="#F1416C" stroke="#F1416C" stroke-width="0.2"/>
<path d="M6.55743 19.4105C6.84715 19.4105 7.08202 19.1756 7.08202 18.8859C7.08202 18.5962 6.84715 18.3613 6.55743 18.3613C6.2677 18.3613 6.03284 18.5962 6.03284 18.8859C6.03284 19.1756 6.2677 19.4105 6.55743 19.4105Z" fill="#F1416C" stroke="#F1416C" stroke-width="0.2"/>
<path d="M8.65582 17.8363C8.94554 17.8363 9.18041 17.6014 9.18041 17.3117C9.18041 17.022 8.94554 16.7871 8.65582 16.7871C8.36609 16.7871 8.13123 17.022 8.13123 17.3117C8.13123 17.6014 8.36609 17.8363 8.65582 17.8363Z" fill="#F1416C" stroke="#F1416C" stroke-width="0.2"/>
<path d="M30.164 5.77049H22.8197V3.67213C22.8197 3.38241 23.0546 3.14754 23.3443 3.14754H27.541C28.4102 3.14754 29.1148 2.44294 29.1148 1.57377C29.1148 0.704601 28.4102 0 27.541 0H22.8197C21.0821 0.00173502 19.6739 1.40992 19.6722 3.14754V5.77049H12.3279C11.4587 5.77049 10.7541 6.47509 10.7541 7.34426V7.86885C10.7564 8.54489 11.1911 9.1436 11.8332 9.35502L12.0289 12.0955C11.7802 12.0808 11.5321 12.0656 11.2787 12.0656C10.5189 12.0672 9.76085 12.1385 9.01407 12.2786L7.74141 10.6261C8.96003 9.41954 9.02771 7.99738 8.40082 7.18426C7.77394 6.37115 6.37695 6.07528 4.90443 6.944L4.56397 6.49967C4.45153 6.34581 4.26448 6.26502 4.07538 6.28865C3.88628 6.31227 3.72486 6.4366 3.65374 6.6134C3.58261 6.7902 3.61296 6.99167 3.73302 7.13967L4.07505 7.58452C2.85223 8.79108 2.79243 10.2164 3.41564 11.0264C4.04987 11.8494 5.4521 12.128 6.91203 11.2666L7.89512 12.5429C4.06141 13.6393 1.31151 16.5351 1.31151 19.9344C1.31027 20.1653 1.32358 20.3961 1.35138 20.6253C1.41452 21.216 1.80488 21.7208 2.36069 21.9305V23.082C1.30534 23.0807 0.413901 23.8648 0.280673 24.9118C0.147444 25.9587 0.814054 26.9411 1.8361 27.2042V28.3279C1.8363 29.1146 2.13279 29.8724 2.66653 30.4504H0.786919C0.497196 30.4504 0.262329 30.6852 0.262329 30.975C0.262329 31.2647 0.497196 31.4995 0.786919 31.4995H31.2131C31.5029 31.4995 31.7377 31.2647 31.7377 30.975C31.7377 30.6852 31.5029 30.4504 31.2131 30.4504H28.4627C28.9439 29.9296 29.2344 29.2611 29.2869 28.554L30.6587 9.35397C31.3005 9.14281 31.7352 8.54456 31.7377 7.86885V7.34426C31.7377 6.47509 31.0331 5.77049 30.164 5.77049ZM4.24502 10.3869C3.82535 9.84026 4.21039 8.97784 4.72135 8.42597L5.01197 8.80315C5.12441 8.95701 5.31145 9.0378 5.50055 9.01417C5.68966 8.99054 5.85107 8.86622 5.9222 8.68942C5.99333 8.51262 5.96298 8.31115 5.84292 8.16315L5.5523 7.78597C6.18653 7.44866 7.13866 7.2661 7.56987 7.82584C8.09131 8.50256 7.39571 9.61521 6.70797 10.145C6.02023 10.6749 4.76698 11.0636 4.24502 10.3869ZM20.7213 3.14754C20.7213 1.98865 21.6608 1.04918 22.8197 1.04918H27.541C27.8307 1.04918 28.0656 1.28405 28.0656 1.57377C28.0656 1.86349 27.8307 2.09836 27.541 2.09836H23.3443C22.4751 2.09836 21.7705 2.80296 21.7705 3.67213V5.77049H20.7213V3.14754ZM29.4128 12.0656H13.0786L12.8913 9.44262H29.6006L29.4128 12.0656ZM28.4381 25.7049H22.2206C22.2679 25.534 22.2929 25.3577 22.2951 25.1803C22.2951 24.0214 21.3556 23.082 20.1968 23.082V21.9279C20.7507 21.7206 21.1407 21.219 21.205 20.6311C21.2333 20.4 21.247 20.1673 21.2459 19.9344C21.2459 19.7361 21.2265 19.5415 21.2082 19.3469C22.2429 19.1013 22.9294 18.1194 22.8051 17.0633C22.6807 16.0071 21.7848 15.2116 20.7213 15.2131C20.3095 15.2154 19.9076 15.3406 19.5672 15.5725C18.6491 14.5176 17.5096 13.6784 16.2298 13.1148H29.3383L28.4381 25.7049ZM20.1968 24.1311C20.7762 24.1311 21.2459 24.6009 21.2459 25.1803C21.2459 25.7598 20.7762 26.2295 20.1968 26.2295H10.4467L12.5451 24.1311H20.1968ZM20.7213 28.3279V27.2042C21.0354 27.1222 21.3261 26.9681 21.5701 26.7541H28.3631L28.2403 28.4784C28.1564 29.5744 27.2447 30.4221 26.1456 30.4262H19.9135C20.4333 29.8509 20.7211 29.1032 20.7213 28.3279ZM20.1826 16.4197C20.3442 16.3185 20.5307 16.2641 20.7213 16.2623C21.2396 16.26 21.681 16.6384 21.7578 17.1509C21.8347 17.6634 21.5238 18.1547 21.0277 18.3045C20.8438 17.6368 20.5588 17.0012 20.1826 16.4197ZM8.58128 13.4353L9.81407 15.0358C9.99147 15.2635 10.3195 15.3052 10.5482 15.1289C10.7768 14.9527 10.8201 14.6248 10.645 14.3953L9.7422 13.2233C10.2514 13.1532 10.7647 13.1169 11.2787 13.1148C16.1962 13.1148 20.1968 16.1742 20.1968 19.9344C20.1974 20.1273 20.1862 20.32 20.1632 20.5115C20.1361 20.7805 19.909 20.985 19.6386 20.9836H2.91676C2.64435 20.9831 2.41708 20.7754 2.39216 20.5041C2.37007 20.315 2.35956 20.1248 2.36069 19.9344C2.36069 16.8918 4.97892 14.3119 8.58128 13.4353ZM3.40987 22.0328H19.1476V23.082H12.3279C12.1888 23.082 12.0554 23.1373 11.957 23.2357L8.15636 27.0358L4.85144 23.2588C4.75195 23.1464 4.60911 23.0821 4.45905 23.082H3.40987V22.0328ZM1.31151 25.1803C1.31151 24.6009 1.78124 24.1311 2.36069 24.1311H4.22089L6.05695 26.2295H2.36069C1.78124 26.2295 1.31151 25.7598 1.31151 25.1803ZM4.98364 30.4262C3.82475 30.4262 2.88528 29.4868 2.88528 28.3279V27.2787H6.97708L7.36948 27.7272C7.56106 27.9453 7.83423 28.0746 8.12436 28.0845H8.15846C8.43681 28.0842 8.70372 27.9737 8.90075 27.777L9.39754 27.2787H19.6722V28.3279C19.6722 29.4868 18.7327 30.4262 17.5738 30.4262H4.98364ZM30.6886 7.86885C30.6886 8.15858 30.4537 8.39344 30.164 8.39344H12.3279C12.0382 8.39344 11.8033 8.15858 11.8033 7.86885V7.34426C11.8033 7.05454 12.0382 6.81967 12.3279 6.81967H30.164C30.4537 6.81967 30.6886 7.05454 30.6886 7.34426V7.86885Z" fill="#F1416C" stroke="#F1416C" stroke-width="0.2"/>
<path d="M25.9673 14.1641C24.8084 14.1641 23.8689 15.1035 23.8689 16.2624C23.8689 17.4213 24.8084 18.3608 25.9673 18.3608C27.1261 18.3608 28.0656 17.4213 28.0656 16.2624C28.0656 15.1035 27.1261 14.1641 25.9673 14.1641ZM25.9673 17.3116C25.3878 17.3116 24.9181 16.8419 24.9181 16.2624C24.9181 15.683 25.3878 15.2132 25.9673 15.2132C26.5467 15.2132 27.0164 15.683 27.0164 16.2624C27.0164 16.8419 26.5467 17.3116 25.9673 17.3116Z" fill="#F1416C" stroke="#F1416C" stroke-width="0.2"/>
<path d="M24.3935 20.9844C23.5243 20.9844 22.8197 21.689 22.8197 22.5581C22.8197 23.4273 23.5243 24.1319 24.3935 24.1319C25.2626 24.1319 25.9672 23.4273 25.9672 22.5581C25.9672 21.689 25.2626 20.9844 24.3935 20.9844ZM24.3935 23.0827C24.1037 23.0827 23.8689 22.8479 23.8689 22.5581C23.8689 22.2684 24.1037 22.0336 24.3935 22.0336C24.6832 22.0336 24.9181 22.2684 24.9181 22.5581C24.9181 22.8479 24.6832 23.0827 24.3935 23.0827Z" fill="#F1416C" stroke="#F1416C" stroke-width="0.2"/>
</g>
<defs>
<clipPath id="clip0_240_20895">
<rect width="32" height="32" fill="white"/>
</clipPath>
</defs>
</svg>
