<svg width="32" height="32" viewBox="0 0 32 32" fill="none" xmlns="http://www.w3.org/2000/svg">
<g clip-path="url(#clip0_240_20914)">
<path d="M30.9334 20.2663H26.4102C25.5883 16.8897 23.6197 13.9032 20.8406 11.8167C21.0292 11.6368 21.1707 11.4132 21.2527 11.1657C21.3346 10.9183 21.3546 10.6544 21.3107 10.3975C21.2668 10.1405 21.1605 9.89822 21.001 9.69196C20.8416 9.48571 20.6339 9.32178 20.3963 9.21459L21.783 4.31805C21.8739 4.00112 21.8901 3.6674 21.8302 3.34316C21.7702 3.01892 21.6359 2.71302 21.4377 2.44951C21.2395 2.18601 20.9828 1.97211 20.6879 1.82463C20.393 1.67716 20.0679 1.60015 19.7382 1.59965H18.7734C18.4928 1.11223 18.0887 0.70736 17.6018 0.42584C17.1149 0.144321 16.5624 -0.00390625 16 -0.00390625C15.4376 -0.00390625 14.8851 0.144321 14.3982 0.42584C13.9114 0.70736 13.5073 1.11223 13.2267 1.59965H12.2614C11.932 1.60032 11.6073 1.67736 11.3127 1.82472C11.0181 1.97208 10.7617 2.18575 10.5637 2.44892C10.3656 2.7121 10.2313 3.01762 10.1712 3.34148C10.1112 3.66533 10.1271 3.9987 10.2176 4.31539L11.6043 9.21459C11.3665 9.32183 11.1588 9.48586 10.9993 9.69226C10.8398 9.89865 10.7335 10.1411 10.6897 10.3982C10.646 10.6553 10.666 10.9193 10.7482 11.1668C10.8304 11.4144 10.9722 11.6379 11.1611 11.8178C8.38855 13.9104 6.42104 16.8938 5.58936 20.2663H1.60003C1.29057 20.265 0.987419 20.3537 0.727601 20.5218C0.467783 20.6899 0.262549 20.9301 0.136972 21.2129C0.011395 21.4957 -0.0290884 21.809 0.0204675 22.1145C0.0700235 22.4199 0.207473 22.7044 0.416025 22.933C0.148492 23.2238 5.40371e-06 23.6045 5.40371e-06 23.9997C5.40371e-06 24.3948 0.148492 24.7755 0.416025 25.0663C0.258796 25.2379 0.141301 25.4421 0.0718925 25.6642C0.00248364 25.8864 -0.0171347 26.1211 0.0144322 26.3517C0.0459991 26.5823 0.127976 26.8031 0.254535 26.9984C0.381095 27.1937 0.549129 27.3588 0.746692 27.4818C0.606747 27.7196 0.532949 27.9904 0.532949 28.2663C0.532949 28.5422 0.606747 28.8131 0.746692 29.0509C0.453133 29.2353 0.227593 29.5103 0.10415 29.8343C-0.0192933 30.1583 -0.0339319 30.5137 0.0624459 30.8467C0.158824 31.1798 0.360981 31.4724 0.638372 31.6804C0.915763 31.8884 1.25332 32.0005 1.60003 31.9997H10.1334C10.4278 31.9987 10.7162 31.9162 10.9667 31.7615C11.2171 31.6067 11.4199 31.3857 11.5526 31.1229C12.9641 31.7009 14.4747 31.9987 16 31.9997H30.9334C31.2163 31.9997 31.4876 31.8873 31.6876 31.6872C31.8876 31.4872 32 31.2159 32 30.933V21.333C32 21.0501 31.8876 20.7788 31.6876 20.5787C31.4876 20.3787 31.2163 20.2663 30.9334 20.2663ZM30.9334 22.8573C30.5666 22.7619 30.232 22.5703 29.964 22.3023C29.696 22.0344 29.5045 21.6997 29.4091 21.333H30.9334V22.8573ZM12.2667 11.1997C12.1252 11.1997 11.9896 11.1435 11.8896 11.0434C11.7895 10.9434 11.7334 10.8078 11.7334 10.6663C11.7334 10.5249 11.7895 10.3892 11.8896 10.2892C11.9896 10.1892 12.1252 10.133 12.2667 10.133H19.7334C19.8748 10.133 20.0105 10.1892 20.1105 10.2892C20.2105 10.3892 20.2667 10.5249 20.2667 10.6663C20.2667 10.8078 20.2105 10.9434 20.1105 11.0434C20.0105 11.1435 19.8748 11.1997 19.7334 11.1997H12.2667ZM11.4166 3.08979C11.5144 2.95817 11.6418 2.85132 11.7884 2.77778C11.935 2.70424 12.0968 2.66607 12.2608 2.66632H12.8475C12.8169 2.84247 12.801 3.02087 12.8 3.19965V5.33299C12.8 5.47444 12.8562 5.61009 12.9562 5.71011C13.0563 5.81013 13.1919 5.86632 13.3334 5.86632C13.4748 5.86632 13.6105 5.81013 13.7105 5.71011C13.8105 5.61009 13.8667 5.47444 13.8667 5.33299V3.19965C13.8658 2.906 13.9261 2.61537 14.0438 2.34632C14.2097 1.96558 14.4831 1.64155 14.8305 1.41397C15.1779 1.1864 15.5842 1.06517 15.9995 1.06517C16.4148 1.06517 16.8211 1.1864 17.1685 1.41397C17.5159 1.64155 17.7893 1.96558 17.9552 2.34632C18.0733 2.61529 18.1339 2.90592 18.1334 3.19965V5.33299C18.1334 5.47444 18.1895 5.61009 18.2896 5.71011C18.3896 5.81013 18.5252 5.86632 18.6667 5.86632C18.8081 5.86632 18.9438 5.81013 19.0438 5.71011C19.1438 5.61009 19.2 5.47444 19.2 5.33299V3.19965C19.1989 3.02085 19.1828 2.84246 19.152 2.66632H19.7387C19.903 2.66759 20.0648 2.70681 20.2115 2.78093C20.3582 2.85505 20.4858 2.96205 20.5843 3.0936C20.6828 3.22514 20.7496 3.37767 20.7794 3.53928C20.8092 3.70089 20.8013 3.8672 20.7563 4.02525L19.3302 9.06632H12.6699L11.2432 4.02259C11.1972 3.86437 11.1889 3.69758 11.219 3.53559C11.2491 3.3736 11.3168 3.22091 11.4166 3.08979ZM1.60003 21.333H10.1334C10.2748 21.333 10.4105 21.3892 10.5105 21.4892C10.6105 21.5892 10.6667 21.7249 10.6667 21.8663C10.6667 22.0078 10.6105 22.1434 10.5105 22.2434C10.4105 22.3435 10.2748 22.3997 10.1334 22.3997H1.60003C1.45858 22.3997 1.32292 22.3435 1.2229 22.2434C1.12288 22.1434 1.06669 22.0078 1.06669 21.8663C1.06669 21.7249 1.12288 21.5892 1.2229 21.4892C1.32292 21.3892 1.45858 21.333 1.60003 21.333ZM1.60003 28.2663C1.60003 28.1249 1.65622 27.9892 1.75623 27.8892C1.85625 27.7892 1.99191 27.733 2.13336 27.733H10.6667C10.8081 27.733 10.9438 27.7892 11.0438 27.8892C11.1438 27.9892 11.2 28.1249 11.2 28.2663C11.2 28.4078 11.1438 28.5434 11.0438 28.6434C10.9438 28.7435 10.8081 28.7997 10.6667 28.7997H2.13336C1.99191 28.7997 1.85625 28.7435 1.75623 28.6434C1.65622 28.5434 1.60003 28.4078 1.60003 28.2663ZM1.60003 26.6663C1.45858 26.6663 1.32292 26.6101 1.2229 26.5101C1.12288 26.4101 1.06669 26.2744 1.06669 26.133C1.06669 25.9915 1.12288 25.8559 1.2229 25.7559C1.32292 25.6558 1.45858 25.5997 1.60003 25.5997H10.1334C10.2748 25.5997 10.4105 25.6558 10.5105 25.7559C10.6105 25.8559 10.6667 25.9915 10.6667 26.133C10.6667 26.2744 10.6105 26.4101 10.5105 26.5101C10.4105 26.6101 10.2748 26.6663 10.1334 26.6663H1.60003ZM1.06669 23.9997C1.06669 23.8582 1.12288 23.7226 1.2229 23.6225C1.32292 23.5225 1.45858 23.4663 1.60003 23.4663H10.1334C10.2748 23.4663 10.4105 23.5225 10.5105 23.6225C10.6105 23.7226 10.6667 23.8582 10.6667 23.9997C10.6667 24.1411 10.6105 24.2768 10.5105 24.3768C10.4105 24.4768 10.2748 24.533 10.1334 24.533H1.60003C1.45858 24.533 1.32292 24.4768 1.2229 24.3768C1.12288 24.2768 1.06669 24.1411 1.06669 23.9997ZM10.1334 30.933H1.60003C1.45858 30.933 1.32292 30.8768 1.2229 30.7768C1.12288 30.6768 1.06669 30.5411 1.06669 30.3997C1.06669 30.2582 1.12288 30.1226 1.2229 30.0225C1.32292 29.9225 1.45858 29.8663 1.60003 29.8663H10.1334C10.2748 29.8663 10.4105 29.9225 10.5105 30.0225C10.6105 30.1226 10.6667 30.2582 10.6667 30.3997C10.6667 30.5411 10.6105 30.6768 10.5105 30.7768C10.4105 30.8768 10.2748 30.933 10.1334 30.933ZM11.68 30.0135C11.6448 29.8741 11.591 29.7401 11.52 29.6151C11.7487 29.4721 11.9373 29.2732 12.068 29.0373C12.1987 28.8014 12.2673 28.5361 12.2673 28.2663C12.2673 27.9966 12.1987 27.7313 12.068 27.4953C11.9373 27.2594 11.7487 27.0606 11.52 26.9175C11.6893 26.628 11.7609 26.2918 11.7244 25.9584C11.6879 25.6251 11.5452 25.3123 11.3174 25.0663C11.5849 24.7755 11.7334 24.3948 11.7334 23.9997C11.7334 23.6045 11.5849 23.2238 11.3174 22.933C11.5259 22.7044 11.6634 22.4199 11.7129 22.1145C11.7625 21.809 11.722 21.4957 11.5964 21.2129C11.4708 20.9301 11.2656 20.6899 11.0058 20.5218C10.746 20.3537 10.4428 20.265 10.1334 20.2663H6.68109C7.46936 17.1261 9.83896 13.7986 12.4187 12.2663H19.5808C22.8544 14.2066 25.6 18.8103 25.6 22.3997C25.6 27.1047 21.2934 30.933 16 30.933C14.5116 30.9314 13.04 30.6182 11.68 30.0135ZM26.6667 22.3997C26.6635 22.043 26.6391 21.6868 26.5936 21.333H28.3147C28.4264 21.9868 28.7384 22.5899 29.2074 23.0589C29.6765 23.528 30.2795 23.8399 30.9334 23.9517V28.3143C30.2795 28.4261 29.6765 28.738 29.2074 29.207C28.7384 29.6761 28.4264 30.2791 28.3147 30.933H20.8646C24.3046 29.3378 26.6667 26.1154 26.6667 22.3997ZM29.4091 30.933C29.5045 30.5662 29.696 30.2316 29.964 29.9636C30.232 29.6957 30.5666 29.5041 30.9334 29.4087V30.933H29.4091Z" fill="#F1416C" stroke="#F1416C" stroke-width="0.1"/>
<path d="M28.8001 27.7332C29.1165 27.7332 29.4259 27.6394 29.689 27.4636C29.9521 27.2877 30.1572 27.0379 30.2783 26.7455C30.3994 26.4531 30.4311 26.1314 30.3693 25.8211C30.3076 25.5107 30.1552 25.2256 29.9314 25.0018C29.7077 24.7781 29.4226 24.6257 29.1122 24.5639C28.8018 24.5022 28.4801 24.5339 28.1878 24.655C27.8954 24.7761 27.6455 24.9812 27.4697 25.2443C27.2939 25.5074 27.2001 25.8168 27.2001 26.1332C27.2001 26.5576 27.3686 26.9645 27.6687 27.2646C27.9688 27.5646 28.3757 27.7332 28.8001 27.7332ZM28.8001 25.5999C28.9056 25.5999 29.0087 25.6311 29.0964 25.6898C29.1841 25.7484 29.2524 25.8317 29.2928 25.9291C29.3332 26.0266 29.3437 26.1338 29.3232 26.2373C29.3026 26.3407 29.2518 26.4357 29.1772 26.5103C29.1026 26.5849 29.0076 26.6357 28.9041 26.6563C28.8007 26.6769 28.6934 26.6663 28.596 26.6259C28.4985 26.5856 28.4152 26.5172 28.3566 26.4295C28.298 26.3418 28.2667 26.2387 28.2667 26.1332C28.2667 25.9918 28.3229 25.8561 28.4229 25.7561C28.523 25.6561 28.6586 25.5999 28.8001 25.5999Z" fill="#F1416C" stroke="#F1416C" stroke-width="0.1"/>
<path d="M17.6 19.2C17.6 19.3414 17.6562 19.4771 17.7562 19.5771C17.8563 19.6771 17.9919 19.7333 18.1334 19.7333C18.2748 19.7333 18.4105 19.6771 18.5105 19.5771C18.6105 19.4771 18.6667 19.3414 18.6667 19.2C18.6659 18.5855 18.4533 17.99 18.0647 17.514C17.6761 17.038 17.1353 16.7105 16.5334 16.5867V16.5333C16.5334 16.3919 16.4772 16.2562 16.3772 16.1562C16.2771 16.0562 16.1415 16 16 16C15.8586 16 15.7229 16.0562 15.6229 16.1562C15.5229 16.2562 15.4667 16.3919 15.4667 16.5333V16.5867C14.8639 16.7091 14.3219 17.0361 13.9326 17.5124C13.5433 17.9887 13.3307 18.5849 13.3307 19.2C13.3307 19.8151 13.5433 20.4113 13.9326 20.8876C14.3219 21.3639 14.8639 21.6909 15.4667 21.8133V24.9691C15.1557 24.8591 14.8863 24.6558 14.6954 24.3868C14.5044 24.1179 14.4013 23.7965 14.4 23.4667C14.4 23.3252 14.3438 23.1896 14.2438 23.0895C14.1438 22.9895 14.0081 22.9333 13.8667 22.9333C13.7252 22.9333 13.5896 22.9895 13.4896 23.0895C13.3896 23.1896 13.3334 23.3252 13.3334 23.4667C13.3341 24.0812 13.5467 24.6766 13.9353 25.1527C14.3239 25.6287 14.8648 25.9562 15.4667 26.08V26.1333C15.4667 26.2748 15.5229 26.4104 15.6229 26.5105C15.7229 26.6105 15.8586 26.6667 16 26.6667C16.1415 26.6667 16.2771 26.6105 16.3772 26.5105C16.4772 26.4104 16.5334 26.2748 16.5334 26.1333V26.08C17.1362 25.9576 17.6781 25.6305 18.0674 25.1543C18.4567 24.678 18.6694 24.0818 18.6694 23.4667C18.6694 22.8515 18.4567 22.2553 18.0674 21.7791C17.6781 21.3028 17.1362 20.9757 16.5334 20.8533V17.6981C16.8442 17.808 17.1136 18.0113 17.3045 18.2802C17.4955 18.549 17.5987 18.8703 17.6 19.2ZM14.4 19.2C14.4014 18.8703 14.5046 18.549 14.6955 18.2802C14.8865 18.0113 15.1558 17.808 15.4667 17.6981V20.7019C15.1558 20.592 14.8865 20.3887 14.6955 20.1198C14.5046 19.851 14.4014 19.5297 14.4 19.2ZM17.6 23.4667C17.5987 23.7964 17.4955 24.1177 17.3045 24.3865C17.1136 24.6553 16.8442 24.8586 16.5334 24.9685V21.9648C16.8442 22.0747 17.1136 22.278 17.3045 22.5468C17.4955 22.8157 17.5987 23.1369 17.6 23.4667Z" fill="#F1416C" stroke="#F1416C" stroke-width="0.1"/>
</g>
<defs>
<clipPath id="clip0_240_20914">
<rect width="32" height="32" fill="white"/>
</clipPath>
</defs>
</svg>
