<svg width="32" height="32" viewBox="0 0 32 32" fill="none" xmlns="http://www.w3.org/2000/svg">
<path d="M29.5573 13.9994H28.0004C27.9118 13.6784 27.721 13.395 27.4569 13.192C27.1929 12.9891 26.8699 12.8776 26.5369 12.8744H24.875V8.81045C24.8769 8.73442 24.8585 8.65927 24.8217 8.59269C24.785 8.52611 24.7312 8.47051 24.6659 8.43157L12.9423 1.6602C12.8762 1.62179 12.8012 1.60156 12.7248 1.60156C12.6483 1.60156 12.5733 1.62179 12.5072 1.6602L0.780002 8.43157C0.713647 8.47004 0.658603 8.52531 0.620418 8.59183C0.582233 8.65835 0.562257 8.73375 0.562502 8.81045V22.3533C0.562504 22.4301 0.58272 22.5055 0.621119 22.572C0.659517 22.6385 0.714745 22.6937 0.781252 22.7321L12.5096 29.5035C12.5761 29.5419 12.6516 29.5621 12.7284 29.5621C12.8072 29.5622 12.8846 29.542 12.9534 29.5035L19.125 25.9437V28.5171C19.1244 28.7621 19.1723 29.0048 19.2661 29.2311C19.3599 29.4575 19.4977 29.6629 19.6714 29.8357C19.8452 30.0084 20.0515 30.145 20.2783 30.2375C20.5052 30.33 20.7482 30.3765 20.9932 30.3744H29.5573C29.8029 30.3767 30.0465 30.3304 30.2742 30.2382C30.5019 30.1459 30.709 30.0096 30.8838 29.8369C31.0585 29.6643 31.1974 29.4588 31.2925 29.2323C31.3875 29.0058 31.4368 28.7627 31.4375 28.5171V15.8858C31.4372 15.3867 31.2392 14.908 30.8868 14.5544C30.5345 14.2009 30.0564 14.0014 29.5573 13.9994ZM26.5524 13.7494C26.7209 13.7494 26.8824 13.8164 27.0015 13.9355C27.1206 14.0546 27.1875 14.2161 27.1875 14.3845V14.4269C27.1875 14.5953 27.1206 14.7568 27.0015 14.8759C26.8824 14.995 26.7209 15.0619 26.5524 15.0619H24.0101C23.8416 15.0619 23.6801 14.995 23.561 14.8759C23.4419 14.7568 23.375 14.5953 23.375 14.4269V14.3845C23.375 14.2161 23.4419 14.0546 23.561 13.9355C23.6801 13.8164 23.8416 13.7494 24.0101 13.7494H26.5524ZM12.7284 2.54426L17.6018 5.35789L6.74913 11.6236L1.87581 8.81001L12.7284 2.54426ZM12.3125 28.3668L1.4375 22.1006V9.56726L12.3125 15.8334V28.3668ZM12.7284 15.0757L7.62413 12.1288L18.4768 5.86307L23.5813 8.81001L12.7284 15.0757ZM19.125 15.8858V24.9334L13.1875 28.3668V15.8334L24 9.56726V12.8744H24.0136C23.6805 12.8776 23.3576 12.9891 23.0935 13.192C22.8295 13.395 22.6387 13.6784 22.55 13.9994H20.9932C20.4953 14.0019 20.0188 14.202 19.6684 14.5557C19.3181 14.9095 19.1226 15.3879 19.125 15.8858ZM30.5625 28.5171C30.5619 28.6478 30.5353 28.7772 30.4843 28.8976C30.4333 29.018 30.3589 29.1271 30.2653 29.2185C30.1718 29.3099 30.061 29.3818 29.9395 29.43C29.8179 29.4783 29.688 29.5019 29.5573 29.4994H20.9932C20.8631 29.5016 20.7338 29.4778 20.613 29.4294C20.4923 29.3809 20.3824 29.3088 20.2899 29.2173C20.1973 29.1258 20.124 29.0167 20.0743 28.8964C20.0245 28.7762 19.9992 28.6472 20 28.5171V15.8858C19.9987 15.7542 20.0233 15.6235 20.0726 15.5014C20.1218 15.3793 20.1946 15.2681 20.2869 15.1742C20.3791 15.0802 20.489 15.0054 20.6102 14.954C20.7314 14.9025 20.8615 14.8755 20.9932 14.8744H22.5671C22.6609 15.1841 22.8526 15.4551 23.1134 15.6466C23.3741 15.8382 23.69 15.94 24.0136 15.9369H26.5369C26.8604 15.94 27.1763 15.8382 27.4371 15.6466C27.6978 15.4551 27.8895 15.1841 27.9833 14.8744H29.5573C29.8244 14.8761 30.08 14.9834 30.2684 15.1729C30.4567 15.3624 30.5624 15.6187 30.5625 15.8858V28.5171Z" fill="#F1416C" stroke="#F1416C" stroke-width="0.2"/>
<path d="M21.4968 20.3125H21.9548C22.0708 20.3125 22.1821 20.2664 22.2641 20.1844C22.3462 20.1023 22.3923 19.991 22.3923 19.875C22.3923 19.759 22.3462 19.6477 22.2641 19.5656C22.1821 19.4836 22.0708 19.4375 21.9548 19.4375H21.9375V18.25H23.1442C23.1717 18.338 23.2272 18.4145 23.3023 18.4679C23.3775 18.5212 23.468 18.5485 23.5601 18.5454C23.6763 18.5458 23.7879 18.5 23.8703 18.4181C23.9528 18.3363 23.9994 18.2251 24 18.1089V17.8146C23.999 17.6978 23.952 17.5862 23.8692 17.5039C23.7864 17.4216 23.6745 17.3753 23.5578 17.375H21.4968C21.4394 17.3753 21.3827 17.3869 21.3298 17.4092C21.2769 17.4314 21.2289 17.4639 21.1885 17.5047C21.1482 17.5455 21.1163 17.5939 21.0947 17.6471C21.073 17.7003 21.0621 17.7572 21.0625 17.8146V19.8755C21.0622 19.9328 21.0731 19.9895 21.0948 20.0425C21.1165 20.0955 21.1484 20.1437 21.1888 20.1843C21.2291 20.2249 21.2771 20.2572 21.33 20.2792C21.3829 20.3012 21.4396 20.3125 21.4968 20.3125Z" fill="#F1416C"/>
<path d="M21.5 24.3125H23.5625C23.6785 24.3125 23.7898 24.2664 23.8719 24.1844C23.9539 24.1023 24 23.991 24 23.875V21.8125C24 21.6965 23.9539 21.5852 23.8719 21.5031C23.7898 21.4211 23.6785 21.375 23.5625 21.375H21.5C21.384 21.375 21.2727 21.4211 21.1906 21.5031C21.1086 21.5852 21.0625 21.6965 21.0625 21.8125V23.875C21.0625 23.991 21.1086 24.1023 21.1906 24.1844C21.2727 24.2664 21.384 24.3125 21.5 24.3125ZM21.9375 22.25H23.125V23.4375H21.9375V22.25Z" fill="#F1416C"/>
<path d="M21.9548 27.4375H21.9375V26.25H23.1206C23.1228 26.3651 23.1701 26.4746 23.2522 26.5552C23.3344 26.6359 23.4448 26.6811 23.5599 26.6812C23.675 26.6813 23.7855 26.6363 23.8678 26.5559C23.9501 26.4754 23.9975 26.3659 24 26.2509V25.8293C23.9996 25.711 23.9532 25.5975 23.8707 25.5128C23.7882 25.428 23.676 25.3786 23.5578 25.375H21.4968C21.3794 25.3789 21.2682 25.4287 21.1871 25.5136C21.1059 25.5985 21.0612 25.7118 21.0625 25.8293V27.8902C21.0625 27.9467 21.0738 28.0027 21.0957 28.0547C21.1177 28.1068 21.1499 28.1539 21.1904 28.1933C21.2309 28.2326 21.2789 28.2635 21.3315 28.284C21.3842 28.3044 21.4404 28.3141 21.4968 28.3125H21.9548C22.0709 28.3125 22.1822 28.2664 22.2642 28.1844C22.3462 28.1023 22.3923 27.991 22.3923 27.875C22.3923 27.759 22.3462 27.6477 22.2642 27.5656C22.1822 27.4836 22.0709 27.4375 21.9548 27.4375Z" fill="#F1416C"/>
<path d="M24.5651 17.9115L23.2839 19.1928L22.8941 18.803C22.8535 18.7623 22.8053 18.7301 22.7522 18.7081C22.6991 18.6861 22.6422 18.6748 22.5847 18.6748C22.5273 18.6748 22.4704 18.6861 22.4173 18.7081C22.3642 18.7301 22.316 18.7623 22.2754 18.803C22.2347 18.8436 22.2025 18.8918 22.1805 18.9449C22.1585 18.998 22.1472 19.0549 22.1472 19.1124C22.1472 19.1698 22.1585 19.2267 22.1805 19.2798C22.2025 19.3329 22.2347 19.3811 22.2754 19.4217L22.9746 20.1209C23.0152 20.1615 23.0634 20.1937 23.1165 20.2157C23.1696 20.2377 23.2265 20.249 23.2839 20.249C23.3414 20.249 23.3983 20.2377 23.4514 20.2157C23.5044 20.1937 23.5527 20.1615 23.5933 20.1209L25.1841 18.5301C25.2661 18.4481 25.3122 18.3368 25.3122 18.2207C25.3122 18.1047 25.2661 17.9934 25.1841 17.9114C25.102 17.8293 24.9907 17.7832 24.8747 17.7832C24.7586 17.7832 24.6474 17.8293 24.5653 17.9114L24.5651 17.9115Z" fill="#F1416C"/>
<path d="M24.5651 25.9897L23.2839 27.2709L22.8941 26.8811C22.8535 26.8405 22.8053 26.8082 22.7522 26.7863C22.6991 26.7643 22.6422 26.753 22.5847 26.753C22.5273 26.753 22.4704 26.7643 22.4173 26.7863C22.3642 26.8082 22.316 26.8405 22.2754 26.8811C22.2347 26.9217 22.2025 26.97 22.1805 27.023C22.1585 27.0761 22.1472 27.133 22.1472 27.1905C22.1472 27.2479 22.1585 27.3048 22.1805 27.3579C22.2025 27.411 22.2347 27.4592 22.2754 27.4999L22.9746 28.199C23.0152 28.2396 23.0634 28.2718 23.1165 28.2938C23.1696 28.3158 23.2265 28.3271 23.2839 28.3271C23.3414 28.3271 23.3983 28.3158 23.4514 28.2938C23.5044 28.2718 23.5527 28.2396 23.5933 28.199L25.1841 26.6082C25.2661 26.5262 25.3122 26.4149 25.3122 26.2989C25.3122 26.1828 25.2661 26.0715 25.1841 25.9895C25.102 25.9074 24.9907 25.8613 24.8747 25.8613C24.7586 25.8613 24.6474 25.9074 24.5653 25.9895L24.5651 25.9897Z" fill="#F1416C"/>
<path d="M29.0535 18.4375H26.3057C26.1896 18.4375 26.0784 18.4836 25.9963 18.5656C25.9143 18.6477 25.8682 18.759 25.8682 18.875C25.8682 18.991 25.9143 19.1023 25.9963 19.1844C26.0784 19.2664 26.1896 19.3125 26.3057 19.3125H29.0535C29.1696 19.3125 29.2809 19.2664 29.3629 19.1844C29.4449 19.1023 29.491 18.991 29.491 18.875C29.491 18.759 29.4449 18.6477 29.3629 18.5656C29.2809 18.4836 29.1696 18.4375 29.0535 18.4375Z" fill="#F1416C"/>
<path d="M29.0535 22.4375H26.3057C26.1896 22.4375 26.0784 22.4836 25.9963 22.5656C25.9143 22.6477 25.8682 22.759 25.8682 22.875C25.8682 22.991 25.9143 23.1023 25.9963 23.1844C26.0784 23.2664 26.1896 23.3125 26.3057 23.3125H29.0535C29.1696 23.3125 29.2809 23.2664 29.3629 23.1844C29.4449 23.1023 29.491 22.991 29.491 22.875C29.491 22.759 29.4449 22.6477 29.3629 22.5656C29.2809 22.4836 29.1696 22.4375 29.0535 22.4375Z" fill="#F1416C"/>
<path d="M29.0535 26.4375H26.3057C26.1896 26.4375 26.0784 26.4836 25.9963 26.5656C25.9143 26.6477 25.8682 26.759 25.8682 26.875C25.8682 26.991 25.9143 27.1023 25.9963 27.1844C26.0784 27.2664 26.1896 27.3125 26.3057 27.3125H29.0535C29.1696 27.3125 29.2809 27.2664 29.3629 27.1844C29.4449 27.1023 29.491 26.991 29.491 26.875C29.491 26.759 29.4449 26.6477 29.3629 26.5656C29.2809 26.4836 29.1696 26.4375 29.0535 26.4375Z" fill="#F1416C"/>
</svg>
