<svg width="26" height="28" viewBox="0 0 26 28" fill="none" xmlns="http://www.w3.org/2000/svg">
<path d="M13 28C14.9316 28 16.4984 26.4332 16.4984 24.5H9.50168C9.50168 26.4332 11.0685 28 13 28ZM24.7792 19.8127C23.7226 18.6774 21.7457 16.9695 21.7457 11.375C21.7457 7.12578 18.7663 3.72422 14.7489 2.88969V1.75C14.7489 0.783672 13.9658 0 13 0C12.0343 0 11.2511 0.783672 11.2511 1.75V2.88969C7.23379 3.72422 4.25441 7.12578 4.25441 11.375C4.25441 16.9695 2.27746 18.6774 1.2209 19.8127C0.892772 20.1655 0.747303 20.5871 0.750038 21C0.756053 21.8969 1.45988 22.75 2.50551 22.75H23.4946C24.5402 22.75 25.2446 21.8969 25.25 21C25.2528 20.5871 25.1073 20.1649 24.7792 19.8127Z" fill="#BDBDBD"/>
</svg>
