<svg width="26" height="26" viewBox="0 0 26 26" fill="none" xmlns="http://www.w3.org/2000/svg">
<path d="M21.5796 4.42193C16.8382 -0.31737 9.16396 -0.318081 4.42186 4.42193C0.609052 8.23297 -0.111437 13.8997 2.14271 18.4126L0.893016 23.9071C0.730581 24.6212 1.37092 25.2616 2.08567 25.0992L7.58266 23.8501C15.5752 27.8387 25.1332 22.0641 25.1332 12.997C25.1332 9.75782 23.8712 6.71248 21.5796 4.42193ZM15.5316 16.0168H7.93899C7.38862 16.0168 6.94246 15.5708 6.94246 15.0207C6.94246 14.4706 7.38862 14.0246 7.93899 14.0246H15.5316C16.0819 14.0246 16.5281 14.4706 16.5281 15.0207C16.5281 15.5708 16.0819 16.0168 15.5316 16.0168ZM18.0625 11.9693H7.93899C7.38862 11.9693 6.94246 11.5233 6.94246 10.9732C6.94246 10.4231 7.38862 9.97711 7.93899 9.97711H18.0625C18.6128 9.97711 19.059 10.4231 19.059 10.9732C19.059 11.5233 18.6128 11.9693 18.0625 11.9693Z" fill="#BDBDBD"/>
</svg>
