<svg width="26" height="26" viewBox="0 0 26 26" fill="none" xmlns="http://www.w3.org/2000/svg">
<path d="M18.26 16.1588H17.1534L16.7612 15.7806C18.1339 14.1837 18.9604 12.1105 18.9604 9.8552C18.9604 4.82633 14.8841 0.75 9.8552 0.75C4.82633 0.75 0.75 4.82633 0.75 9.8552C0.75 14.8841 4.82633 18.9604 9.8552 18.9604C12.1105 18.9604 14.1837 18.1339 15.7806 16.7612L16.1588 17.1534V18.26L23.1628 25.25L25.25 23.1628L18.26 16.1588ZM9.8552 16.1588C6.36721 16.1588 3.5516 13.3432 3.5516 9.8552C3.5516 6.36721 6.36721 3.5516 9.8552 3.5516C13.3432 3.5516 16.1588 6.36721 16.1588 9.8552C16.1588 13.3432 13.3432 16.1588 9.8552 16.1588Z" fill="#BDBDBD"/>
</svg>
