<svg width="22" height="16" viewBox="0 0 22 16" fill="none" xmlns="http://www.w3.org/2000/svg">
<path fill-rule="evenodd" clip-rule="evenodd" d="M15.281 9.03516C16.5368 9.88766 17.4168 11.0427 17.4168 12.5827V15.3327H21.0835V12.5827C21.0835 10.5843 17.811 9.40182 15.281 9.03516Z" fill="#828282"/>
<path d="M8.25016 7.99935C10.2752 7.99935 11.9168 6.35773 11.9168 4.33268C11.9168 2.30764 10.2752 0.666016 8.25016 0.666016C6.22512 0.666016 4.5835 2.30764 4.5835 4.33268C4.5835 6.35773 6.22512 7.99935 8.25016 7.99935Z" fill="#828282"/>
<path fill-rule="evenodd" clip-rule="evenodd" d="M13.7502 7.99935C15.776 7.99935 17.4168 6.35852 17.4168 4.33268C17.4168 2.30685 15.776 0.666016 13.7502 0.666016C13.3193 0.666016 12.916 0.757682 12.531 0.886015C13.2918 1.83018 13.7502 3.03102 13.7502 4.33268C13.7502 5.63435 13.2918 6.83518 12.531 7.77935C12.916 7.90768 13.3193 7.99935 13.7502 7.99935Z" fill="#828282"/>
<path fill-rule="evenodd" clip-rule="evenodd" d="M8.25008 8.91602C5.80258 8.91602 0.916748 10.1443 0.916748 12.5827V15.3327H15.5834V12.5827C15.5834 10.1443 10.6976 8.91602 8.25008 8.91602Z" fill="#828282"/>
</svg>
