<svg width="20" height="20" viewBox="0 0 20 20" fill="none" xmlns="http://www.w3.org/2000/svg">
<path d="M7.70828 0H1.45828C0.654144 0 0 0.654144 0 1.45828V5.20828C0 6.01257 0.654144 6.66672 1.45828 6.66672H7.70828C8.51257 6.66672 9.16672 6.01257 9.16672 5.20828V1.45828C9.16672 0.654144 8.51257 0 7.70828 0Z" fill="#828282"/>
<path d="M7.70828 8.33398H1.45828C0.654144 8.33398 0 8.98813 0 9.79242V18.5424C0 19.3466 0.654144 20.0007 1.45828 20.0007H7.70828C8.51257 20.0007 9.16672 19.3466 9.16672 18.5424V9.79242C9.16672 8.98813 8.51257 8.33398 7.70828 8.33398Z" fill="#828282"/>
<path d="M18.5416 13.334H12.2916C11.4873 13.334 10.8332 13.9881 10.8332 14.7924V18.5424C10.8332 19.3466 11.4873 20.0007 12.2916 20.0007H18.5416C19.3458 20.0007 19.9999 19.3466 19.9999 18.5424V14.7924C19.9999 13.9881 19.3458 13.334 18.5416 13.334Z" fill="#828282"/>
<path d="M18.5416 0H12.2916C11.4873 0 10.8332 0.654144 10.8332 1.45828V10.2083C10.8332 11.0126 11.4873 11.6667 12.2916 11.6667H18.5416C19.3458 11.6667 19.9999 11.0126 19.9999 10.2083V1.45828C19.9999 0.654144 19.3458 0 18.5416 0V0Z" fill="#828282"/>
</svg>
