<svg width="18" height="18" viewBox="0 0 18 18" fill="none" xmlns="http://www.w3.org/2000/svg">
<path d="M15.545 9.86088C15.5817 9.58588 15.6 9.30172 15.6 8.99922C15.6 8.70588 15.5817 8.41255 15.5359 8.13755L17.3967 6.68922C17.5617 6.56088 17.6075 6.31339 17.5067 6.13005L15.7467 3.08672C15.6367 2.88505 15.4075 2.82089 15.2059 2.88505L13.015 3.76505C12.5567 3.41672 12.0709 3.12339 11.53 2.90339L11.2 0.575052C11.1634 0.355052 10.98 0.199219 10.76 0.199219H7.24002C7.02002 0.199219 6.84585 0.355052 6.80919 0.575052L6.47919 2.90339C5.93835 3.12339 5.44335 3.42589 4.99419 3.76505L2.80335 2.88505C2.60169 2.81172 2.37252 2.88505 2.26252 3.08672L0.511686 6.13005C0.401686 6.32255 0.438352 6.56088 0.621686 6.68922L2.48252 8.13755C2.43669 8.41255 2.40002 8.71505 2.40002 8.99922C2.40002 9.28339 2.41835 9.58588 2.46419 9.86088L0.603352 11.3092C0.438352 11.4376 0.392519 11.6851 0.493353 11.8684L2.25335 14.9117C2.36335 15.1134 2.59252 15.1776 2.79419 15.1134L4.98502 14.2334C5.44335 14.5817 5.92919 14.8751 6.47002 15.0951L6.80002 17.4234C6.84585 17.6434 7.02002 17.7992 7.24002 17.7992H10.76C10.98 17.7992 11.1634 17.6434 11.1909 17.4234L11.5209 15.0951C12.0617 14.8751 12.5567 14.5817 13.0059 14.2334L15.1967 15.1134C15.3984 15.1867 15.6275 15.1134 15.7375 14.9117L17.4975 11.8684C17.6075 11.6667 17.5617 11.4376 17.3875 11.3092L15.545 9.86088ZM9.00002 12.2992C7.18502 12.2992 5.70002 10.8142 5.70002 8.99922C5.70002 7.18422 7.18502 5.69922 9.00002 5.69922C10.815 5.69922 12.3 7.18422 12.3 8.99922C12.3 10.8142 10.815 12.2992 9.00002 12.2992Z" fill="#828282"/>
</svg>
