<svg width="22" height="19" viewBox="0 0 22 19" fill="none" xmlns="http://www.w3.org/2000/svg">
<path d="M15.7759 7.2499L11.7609 1.23656C11.5867 0.979896 11.2934 0.851562 11.0001 0.851562C10.7067 0.851562 10.4134 0.979896 10.2392 1.24573L6.22425 7.2499H1.83341C1.32925 7.2499 0.916748 7.6624 0.916748 8.16656C0.916748 8.24906 0.925915 8.33156 0.953415 8.41406L3.28175 16.9116C3.49258 17.6816 4.19841 18.2499 5.04175 18.2499H16.9584C17.8017 18.2499 18.5076 17.6816 18.7276 16.9116L21.0559 8.41406L21.0834 8.16656C21.0834 7.6624 20.6709 7.2499 20.1667 7.2499H15.7759ZM8.25008 7.2499L11.0001 3.21656L13.7501 7.2499H8.25008ZM11.0001 14.5832C9.99175 14.5832 9.16675 13.7582 9.16675 12.7499C9.16675 11.7416 9.99175 10.9166 11.0001 10.9166C12.0084 10.9166 12.8334 11.7416 12.8334 12.7499C12.8334 13.7582 12.0084 14.5832 11.0001 14.5832Z" fill="#828282"/>
</svg>
